<svg preserveAspectRatio="none" width="100%" height="100%" overflow="visible" style="display: block;" viewBox="0 0 14 14" fill="none" xmlns="http://www.w3.org/2000/svg">
<g id="coin-number">
<path id="Icon" d="M4.58333 4.45454C5.03545 2.69795 6.63002 1.4 8.52775 1.4C10.7771 1.4 12.6005 3.22342 12.6005 5.47273C12.6005 7.26601 11.4415 8.7886 9.83164 9.33226M4.58333 9.98997H5.47225M5.47225 9.98997H6.29952M5.47225 9.98997V6.74452C5.47225 6.74452 4.85169 7.17115 4.45407 7.44452M9.54498 8.52727C9.54498 10.7766 7.72156 12.6 5.47225 12.6C3.22295 12.6 1.39952 10.7766 1.39952 8.52727C1.39952 6.27797 3.22295 4.45454 5.47225 4.45454C7.72156 4.45454 9.54498 6.27797 9.54498 8.52727Z" stroke="var(--stroke-0, #30BAC3)" stroke-width="1.5" stroke-linecap="round" stroke-linejoin="round"/>
</g>
</svg>
