<svg preserveAspectRatio="none" width="100%" height="100%" overflow="visible" style="display: block;" viewBox="0 0 14 14" fill="none" xmlns="http://www.w3.org/2000/svg">
<g id="user-profile-circle">
<path id="Icon" d="M3.15 11.2C3.41902 10.8987 4.67894 9.51223 5.04817 9.51223H8.95207C9.4871 9.51223 10.5793 10.6615 10.85 11.0666M12.6 7C12.6 10.0928 10.0928 12.6 7 12.6C3.9072 12.6 1.4 10.0928 1.4 7C1.4 3.9072 3.9072 1.4 7 1.4C10.0928 1.4 12.6 3.9072 12.6 7ZM9.00599 5.09131C9.00599 4.02293 8.10408 3.15 7.00017 3.15C5.89628 3.15 4.99435 4.02293 4.99435 5.09131C4.99435 6.15969 5.89628 7.03262 7.00017 7.03262C8.10405 7.03262 9.00599 6.15969 9.00599 5.09131Z" stroke="var(--stroke-0, #30BAC3)" stroke-width="1.5"/>
</g>
</svg>
