<svg preserveAspectRatio="none" width="100%" height="100%" overflow="visible" style="display: block;" viewBox="0 0 14 14" fill="none" xmlns="http://www.w3.org/2000/svg">
<g id="star-02">
<path id="Icon" d="M6.70543 1.58311C6.82592 1.33896 7.17408 1.33896 7.29457 1.58311L8.85441 4.74369C8.90226 4.84064 8.99475 4.90784 9.10174 4.92339L12.5896 5.43021C12.8591 5.46936 12.9667 5.80047 12.7717 5.99052L10.2478 8.45068C10.1704 8.52615 10.1351 8.63488 10.1534 8.74144L10.7492 12.2152C10.7952 12.4836 10.5135 12.6882 10.2725 12.5615L7.15286 10.9214C7.05716 10.8711 6.94284 10.8711 6.84714 10.9214L3.72747 12.5615C3.48647 12.6882 3.20481 12.4836 3.25084 12.2152L3.84664 8.74144C3.86492 8.63488 3.82959 8.52615 3.75217 8.45068L1.2283 5.99052C1.03333 5.80047 1.14092 5.46936 1.41036 5.43021L4.89826 4.92339C5.00525 4.90784 5.09774 4.84064 5.14559 4.74369L6.70543 1.58311Z" stroke="var(--stroke-0, #30BAC3)" stroke-width="1.5" stroke-linejoin="round"/>
</g>
</svg>
